<svg id="Layer_1" data-name="Layer 1" xmlns="http://www.w3.org/2000/svg" viewBox="0 0 598.66 898.16"><defs><style>.cls-1{fill:#db0000;}.cls-2{font-size:500px;font-family:TrebuchetMS-Bold, Trebuchet MS;font-weight:700;}</style></defs><title>2</title><path class="cls-1" d="M257.31,499.22l.19-.8-3-5.23a284.34,284.34,0,1,1,484.2,12.24l-.23.34L499.76,919.16Z" transform="translate(-201 -51)"/><path d="M500.33,81A269.36,269.36,0,0,1,726.09,497.24l-.44.68-.41.71L499.76,889.16,273.31,496.93l.2-.83-6.09-10.46A269.22,269.22,0,0,1,500.33,81m0-30C335,51,201,185,201,350.33a298,298,0,0,0,40.49,150.41l-.18.76L499.76,949.16,751.22,513.63a297.94,297.94,0,0,0,48.44-163.3C799.66,185,665.65,51,500.33,51Z" transform="translate(-201 -51)"/><text class="cls-2" transform="translate(152.52 502.5)">2</text></svg>