<svg id="Outline" xmlns="http://www.w3.org/2000/svg" viewBox="0 0 905.67 938.66"><defs><style>.cls-1{fill:red;stroke:#000;stroke-miterlimit:10;stroke-width:20px;}.cls-2{fill:#fff;}</style></defs><title>burst</title><polygon class="cls-1" points="370.19 267.37 458.5 42.83 479.17 267.37 592.85 167.78 546.82 277.71 839.01 124.57 619.16 382.93 825.85 418.63 669.89 485.34 867.19 665.73 583.46 583.05 678.35 894.03 438.77 605.6 388.04 863.02 342 584.93 116.52 684.52 261.2 497.55 39.48 296.5 258.39 362.26 203.89 55.04 370.19 267.37"/><polygon class="cls-2" points="396.21 364.38 431.78 274.81 441.65 363.74 488.5 323.57 469.92 367.44 590.9 304.98 500.67 408.75 587.06 421.7 522.4 449.07 605.68 519.46 486.91 488.34 528.22 611.12 426.71 498.13 406.99 600.54 386.24 490.51 292.78 531.33 352.06 456.32 258.48 377.89 350.12 402.68 325.69 281.15 396.21 364.38"/></svg>