<svg id="Layer_1" data-name="Layer 1" xmlns="http://www.w3.org/2000/svg" viewBox="0 0 598.66 898.16"><defs><style>.cls-1{fill:#fcfc00;}</style></defs><title>star-marker</title><path class="cls-1" d="M257.31,499.22l.19-.8-3-5.23a284.34,284.34,0,1,1,484.2,12.24l-.23.34L499.76,919.16Z" transform="translate(-201 -51)"/><path d="M500.33,81A269.36,269.36,0,0,1,726.09,497.24l-.44.68-.41.71L499.76,889.16,273.31,496.93l.2-.83-6.09-10.46A269.22,269.22,0,0,1,500.33,81m0-30C335,51,201,185,201,350.33a298,298,0,0,0,40.49,150.41l-.18.76L499.76,949.16,751.22,513.63a297.94,297.94,0,0,0,48.44-163.3C799.66,185,665.65,51,500.33,51Z" transform="translate(-201 -51)"/><polygon points="298.82 120.25 339.41 245.15 470.74 245.16 364.49 322.36 405.07 447.27 298.82 370.08 192.56 447.27 233.14 322.36 126.89 245.16 258.23 245.15 298.82 120.25"/></svg>